<svg version="1.1" id="Layer_1" xmlns="http://www.w3.org/2000/svg" xmlns:xlink="http://www.w3.org/1999/xlink" x="0px" y="0px"
	 width="741.7px" height="158.3px" viewBox="0 0 741.7 158.3" style="enable-background:new 0 0 741.7 158.3;" xml:space="preserve"
	>
<style type="text/css">
	.st0{fill:#FFFFFF;}
	.st1{fill:#D99442;}
	.st2{fill:#E4AC5F;}
	.st3{fill:#A06D4A;}
	.st4{fill:#985C31;}
	.st5{fill:#FFDB31;}
	.st6{fill:#CF1C26;}
	.st7{fill:#5EA131;}
	.st8{fill:#F9BA70;}
	.st9{fill:#FFDE83;}
	.st10{fill:#CCCBCB;}
	.st11{fill:#484747;}
</style>

	<path class="st0" d="M343.4,64.4V79c0,1.5-0.7,2.2-2.2,2.2h-19c-0.6,0-0.9,0.3-0.9,0.9v60.2c0,1.5-0.7,2.2-2.2,2.2h-17.7
		c-1.5,0-2.2-0.7-2.2-2.2V82.2c0-0.6-0.3-0.9-0.9-0.9h-18.4c-1.5,0-2.2-0.7-2.2-2.2V64.4c0-1.5,0.7-2.2,2.2-2.2h61.3
		C342.6,62.1,343.4,62.9,343.4,64.4z"/>
	<path class="st0" d="M389.1,142.7l-2.4-8.5c-0.2-0.5-0.5-0.8-1.1-0.8h-24.5c-0.6,0-0.9,0.3-1.1,0.8l-2.4,8.5
		c-0.3,1.3-1.1,1.9-2.5,1.9h-19.1c-0.8,0-1.4-0.2-1.7-0.7c-0.4-0.5-0.4-1.1-0.2-1.9l24.5-78c0.4-1.3,1.2-1.9,2.5-1.9h24.3
		c1.3,0,2.1,0.6,2.5,1.9l24.5,78c0.1,0.2,0.1,0.5,0.1,0.8c0,1.2-0.7,1.8-2,1.8h-19.1C390.2,144.6,389.4,143.9,389.1,142.7z
		 M365.3,115.6c0,0.6,0.3,0.8,0.8,0.8h14.6c0.3,0,0.5-0.1,0.7-0.3c0.2-0.2,0.2-0.5,0.1-0.8L374,88.2c-0.1-0.4-0.3-0.6-0.5-0.6
		c-0.3,0-0.5,0.2-0.6,0.6l-7.5,27.2V115.6z"/>
	<path class="st0" d="M414.2,142.3V64.4c0-1.5,0.7-2.2,2.2-2.2h17.7c1.5,0,2.2,0.7,2.2,2.2v27c0,0.4,0.1,0.6,0.4,0.7
		c0.3,0.1,0.5,0,0.8-0.4l19.9-28.1c0.6-0.9,1.5-1.4,2.7-1.4h20c1.2,0,1.8,0.4,1.8,1.3c0,0.6-0.2,1-0.5,1.4l-23.8,33.2
		c-0.3,0.5-0.4,0.9-0.1,1.3l25,42.5c0.2,0.5,0.4,0.9,0.4,1.3c0,0.9-0.6,1.4-1.9,1.4H461c-1.2,0-2-0.5-2.6-1.5l-15.9-28.3
		c-0.2-0.3-0.4-0.5-0.6-0.5c-0.3,0-0.5,0.2-0.6,0.5l-4.6,6.9c-0.2,0.5-0.4,0.9-0.4,1.2v19.4c0,1.5-0.7,2.2-2.2,2.2h-17.7
		C414.9,144.6,414.2,143.8,414.2,142.3z"/>
	<path class="st0" d="M540.6,81.1h-34.4c-0.6,0-0.9,0.3-0.9,0.9v10.4c0,0.6,0.3,0.9,0.9,0.9h21c1.5,0,2.2,0.7,2.2,2.2v14.4
		c0,1.5-0.7,2.2-2.2,2.2h-21c-0.6,0-0.9,0.3-0.9,0.9v11.5c0,0.6,0.3,0.9,0.9,0.9h34.4c1.5,0,2.2,0.7,2.2,2.2v14.5
		c0,1.5-0.7,2.2-2.2,2.2h-55.2c-1.5,0-2.2-0.7-2.2-2.2V64.4c0-1.5,0.7-2.2,2.2-2.2h55.2c1.5,0,2.2,0.7,2.2,2.2v14.5
		C542.9,80.4,542.1,81.1,540.6,81.1z"/>
	<path class="st0" d="M559,142c-5-2.6-8.9-6.3-11.6-11.1c-2.7-4.7-4.1-10.3-4.1-16.5V92.3c0-6.1,1.4-11.5,4.1-16.2s6.6-8.4,11.6-11
		c5-2.6,10.7-3.9,17.2-3.9c6.6,0,12.4,1.3,17.4,3.9c5,2.6,8.8,6.2,11.6,11c2.7,4.7,4.1,10.1,4.1,16.2v22.1c0,6.3-1.4,11.8-4.1,16.5
		c-2.8,4.8-6.6,8.4-11.6,11.1c-5,2.6-10.8,3.9-17.4,3.9C569.8,146,564,144.7,559,142z M584.2,123.8c2-2.2,3-5,3-8.7V92.1
		c0-3.6-1-6.5-3-8.7c-2-2.2-4.7-3.2-7.9-3.2c-3.2,0-5.8,1.1-7.8,3.2c-2,2.2-3,5-3,8.7v23.1c0,3.6,1,6.5,3,8.7c2,2.2,4.6,3.2,7.8,3.2
		C579.6,127,582.2,125.9,584.2,123.8z"/>
	<path class="st0" d="M626.5,141.9c-4.9-2.4-8.7-5.9-11.4-10.4c-2.7-4.5-4-9.7-4-15.5V64.4c0-1.5,0.7-2.2,2.2-2.2H631
		c1.5,0,2.2,0.7,2.2,2.2V116c0,3.2,0.9,5.8,2.8,7.7c1.8,1.9,4.3,2.9,7.4,2.9c3,0,5.4-1,7.2-2.9c1.8-2,2.8-4.5,2.8-7.7V64.4
		c0-1.5,0.7-2.2,2.2-2.2h17.7c1.5,0,2.2,0.7,2.2,2.2V116c0,5.9-1.3,11.1-4,15.5s-6.4,7.9-11.3,10.4c-4.9,2.4-10.5,3.7-16.8,3.7
		C637,145.5,631.4,144.3,626.5,141.9z"/>
	<path class="st0" d="M741.7,64.4V79c0,1.5-0.7,2.2-2.2,2.2h-19c-0.6,0-0.9,0.3-0.9,0.9v60.2c0,1.5-0.7,2.2-2.2,2.2h-17.7
		c-1.5,0-2.2-0.7-2.2-2.2V82.2c0-0.6-0.3-0.9-0.9-0.9h-18.4c-1.5,0-2.2-0.7-2.2-2.2V64.4c0-1.5,0.7-2.2,2.2-2.2h61.3
		C741,62.1,741.7,62.9,741.7,64.4z"/>

	<path class="st1" d="M104.7,103.1l143.3,0.1c4,0,7.2,3.2,7.2,7.2v0c0,16.6-13.5,30-30,30l-97.8-0.1c-16.6,0-30-13.5-30-30v0
		C97.5,106.3,100.7,103.1,104.7,103.1z"/>
	<path class="st2" d="M219.9,127c14.2,0,26-10.2,28.8-23.7c-0.2,0-0.4,0-0.6,0l-143.6-0.1c-3.9,0-7.1,3.2-7.1,7.2v0
		c0,1.8,0.1,3.5,0.4,5.2c5.4,6.9,13.7,11.4,23.1,11.4L219.9,127z"/>
	<path class="st3" d="M243.9,81.8l-135.6-0.1c-5.3,0-9.6-4.3-9.6-9.6l0,0c0-5.3,4.3-9.6,9.6-9.6l135.6,0.1c5.3,0,9.6,4.3,9.6,9.6
		l0,0C253.5,77.5,249.2,81.8,243.9,81.8z"/>
	<path class="st4" d="M243.9,62.6l-6.2,0c0.6,1.3,1,2.7,1,4.3v0c0,5.3-4.3,9.6-9.6,9.6L99.7,76.4c1.6,3.2,4.8,5.3,8.6,5.3l135.6,0.1
		c5.3,0,9.6-4.3,9.6-9.6v0C253.5,66.9,249.2,62.6,243.9,62.6z"/>
	<path class="st3" d="M243.9,104.3l-135.6-0.1c-5.3,0-9.6-4.3-9.6-9.6l0,0c0-5.3,4.3-9.6,9.6-9.6l135.6,0.1c5.3,0,9.6,4.3,9.6,9.6
		l0,0C253.5,100,249.2,104.3,243.9,104.3z"/>
	<path class="st4" d="M243.9,85.1l-6.2,0c0.6,1.3,1,2.7,1,4.3v0c0,5.3-4.3,9.6-9.6,9.6L99.7,98.9c1.6,3.2,4.8,5.3,8.6,5.3l135.6,0.1
		c5.3,0,9.6-4.3,9.6-9.6v0C253.5,89.4,249.2,85.1,243.9,85.1z"/>
	<path class="st5" d="M239.7,86.9l4,0c1.6,0,2.9-1.5,2.9-3.4l0,0c0-1.9-1.3-3.4-2.9-3.4L108.5,80c-1.6,0-2.9,1.5-2.9,3.4l0,0
		c0,1.9,1.3,3.4,2.9,3.4l63.7,0.1c4.9,0,9.7,2.1,13.3,6l18.9,20c1.1,1.2,2.8,1.2,3.9-0.1L226,93.2C229.7,89.2,234.6,86.9,239.7,86.9
		z"/>
	<path class="st5" d="M112.5,64l-4,0c-1.6,0-2.9-1.5-2.9-3.4l0,0c0-1.9,1.3-3.4,2.9-3.4l135.2,0.1c1.6,0,2.9,1.5,2.9,3.4l0,0
		c0,1.9-1.3,3.4-2.9,3.4L180,64c-4.9,0-9.7,2.1-13.3,6l-19,20c-1.1,1.2-2.8,1.2-3.9-0.1l-17.6-19.6C122.5,66.2,117.6,64,112.5,64z"
		/>
	<path class="st6" d="M172.5,53.8l-67-0.1c-2,0-3.7-1.7-3.7-3.7l0-6.9c0-2,1.7-3.7,3.7-3.7l67,0.1c2,0,3.7,1.7,3.7,3.7l0,6.9
		C176.2,52.1,174.6,53.8,172.5,53.8z"/>
	<path class="st6" d="M246.9,53.9l-67-0.1c-2,0-3.7-1.7-3.7-3.7l0-6.9c0-2,1.7-3.7,3.7-3.7l67,0.1c2,0,3.7,1.7,3.7,3.7l0,6.9
		C250.6,52.2,249,53.9,246.9,53.9z"/>
	<path class="st7" d="M259.2,56.8c-0.1-2.3-1.4-4.2-3.3-4.9c-4.5-1.5-5.4-5.1-11.7-5.1c-7.5,0-7.5,5.7-15.1,5.7
		c-7.5,0-7.5-5.7-15-5.7c-7.5,0-7.5,5.7-15.1,5.7c-7.5,0-7.5-5.7-15-5.7c-7.5,0-7.5,5.7-15.1,5.7c-7.5,0-7.5-5.7-15-5.7
		c-7.5,0-7.5,5.7-15.1,5.7c-7.5,0-7.5-5.7-15-5.7c-7.5,0-7.5,5.7-15.1,5.7c-4.1,0-6-1.8-8.1-3.4c-3-2.3-7,0.3-6.9,4.5l0,0
		c0.1,2.3,1.4,4.2,3.3,4.9c4.5,1.5,5.4,5.1,11.7,5.1c7.5,0,7.5-5.7,15.1-5.7c7.5,0,7.5,5.7,15,5.7c7.5,0,7.5-5.7,15.1-5.7
		c7.5,0,7.5,5.7,15,5.7c7.5,0,7.5-5.7,15.1-5.7c7.5,0,7.5,5.7,15,5.7c7.5,0,7.5-5.7,15.1-5.7c7.5,0,7.5,5.7,15,5.7
		c7.5,0,7.5-5.7,15.1-5.7c4.1,0,6,1.8,8.1,3.4C255.4,63.6,259.3,61,259.2,56.8L259.2,56.8z"/>
	<path class="st2" d="M252.1,42.5l-151.4-0.1c-2.6,0-4.7-2.1-4.7-4.7v0C96,5.5,123.8,0,133.7,0l85.5,0.1c11.2,0,37.6,8.3,37.6,37.7
		v0C256.8,40.4,254.7,42.5,252.1,42.5z"/>
	<path class="st1" d="M246.9,25.5l0,3.6c0,2.6-3.2,4.6-7.2,4.6L96.4,33.6C96.2,35,96,36.3,96,37.7v0c0,1.3,0.8,2.4,2.1,3.3
		c1.3,0.8,3.1,1.4,5.1,1.4l146.3,0.1c2,0,3.8-0.5,5.1-1.4c1.3-0.8,2.1-2,2.1-3.3v0c0-8.8-4.8-16.9-12.8-23.3
		C245.9,18,246.9,21.6,246.9,25.5z"/>
	<path class="st8" d="M100.1,40.8L100.1,40.8c0-20.8,26-37.6,58.1-37.5l44.7,0c17.1,0,32.5,4.8,43.1,12.4
		c-10.5-9.5-27.7-15.7-47.1-15.7l-44.7,0C105.7,0,96,16.8,96,37.6v0c0,1.9,1.7,3.5,4.2,4.3C100.1,41.5,100.1,41.2,100.1,40.8z"/>
	<path class="st9" d="M146.3,7.9l-7.9,0c-0.9,0-1.6-0.5-1.6-1.2s0.7-1.2,1.6-1.2l7.9,0c0.9,0,1.6,0.5,1.6,1.2
		C147.9,7.4,147.2,7.9,146.3,7.9z"/>
	<path class="st9" d="M216.3,8.3l-7.9,0c-0.9,0-1.6-0.5-1.6-1.2s0.7-1.2,1.6-1.2l7.9,0c0.9,0,1.6,0.5,1.6,1.2S217.1,8.3,216.3,8.3z"
		/>
	<path class="st9" d="M178.6,16.8l-7.5,0c-0.9,0-1.6-0.5-1.6-1.2c0-0.7,0.7-1.2,1.6-1.2l7.5,0c0.9,0,1.6,0.5,1.6,1.2
		S179.5,16.8,178.6,16.8z"/>
	<path class="st9" d="M122.2,19.6l-7.5,0c-0.9,0-1.6-0.5-1.6-1.2c0-0.7,0.7-1.2,1.6-1.2l7.5,0c0.9,0,1.6,0.5,1.6,1.2
		C123.8,19.1,123.1,19.6,122.2,19.6z"/>
	<path class="st9" d="M215.8,19.6l-7,0c-0.9,0-1.6-0.5-1.6-1.2s0.7-1.2,1.6-1.2l7,0c0.9,0,1.6,0.5,1.6,1.2
		C217.4,19.1,216.7,19.6,215.8,19.6z"/>
	<path class="st9" d="M180.5,5.8l-4,0c-0.9,0-1.6-0.5-1.6-1.2s0.7-1.2,1.6-1.2l4,0c0.9,0,1.6,0.5,1.6,1.2S181.4,5.8,180.5,5.8z"/>
	<path class="st9" d="M149.9,18.4l-4,0c-0.9,0-1.6-0.5-1.6-1.2c0-0.7,0.7-1.2,1.6-1.2l4,0c0.9,0,1.6,0.5,1.6,1.2
		C151.5,17.8,150.8,18.4,149.9,18.4z"/>
	<path class="st9" d="M240.1,16.8l-4,0c-0.9,0-1.6-0.5-1.6-1.2s0.7-1.2,1.6-1.2l4,0c0.9,0,1.6,0.5,1.6,1.2S241,16.8,240.1,16.8z"/>
	<circle class="st10" cx="134.7" cy="136.7" r="21.6"/>
	<circle class="st10" cx="212.3" cy="136.7" r="21.6"/>
	<path class="st1" d="M2.4,83.3h67.4c1.3,0,2.4-1.1,2.4-2.4v-1c0-1.3-1.1-2.4-2.4-2.4H2.4c-1.3,0-2.4,1.1-2.4,2.4l0,1
		C0,82.2,1.1,83.3,2.4,83.3z"/>
	<path class="st1" d="M46.7,99.1h35.5c1.3,0,2.4-1.1,2.4-2.4v-1c0-1.3-1.1-2.4-2.4-2.4H46.7c-1.3,0-2.4,1.1-2.4,2.4l0,1
		C44.3,98,45.4,99.1,46.7,99.1z"/>
	<path class="st1" d="M12.9,111.9h26.2c1.3,0,2.4-1.1,2.4-2.4v-1c0-1.3-1.1-2.4-2.4-2.4H12.9c-1.3,0-2.4,1.1-2.4,2.4v1
		C10.5,110.8,11.6,111.9,12.9,111.9z"/>
	<circle class="st11" cx="134.7" cy="136.7" r="7.8"/>
	<circle class="st11" cx="212.3" cy="136.7" r="7.8"/>

	<path class="st0" d="M305.4,43.7l-1.9-6.2c0-0.2-0.2-0.3-0.4-0.3h-15.9c-0.2,0-0.4,0.1-0.4,0.3l-1.9,6.2c-0.2,0.5-0.5,0.8-1.1,0.8
		h-5.5c-0.3,0-0.6-0.1-0.7-0.3c-0.1-0.2-0.2-0.5-0.1-0.8l13-40.6c0.2-0.5,0.5-0.8,1.1-0.8h7.1c0.6,0,0.9,0.3,1.1,0.8l13,40.6
		c0,0.1,0.1,0.2,0.1,0.4c0,0.5-0.3,0.7-0.8,0.7h-5.5C305.9,44.5,305.5,44.2,305.4,43.7z M288.9,31.6h12.4c0.2,0,0.3-0.1,0.3-0.4
		l-6.2-20.6c0-0.2-0.1-0.2-0.2-0.2c-0.1,0-0.2,0.1-0.3,0.2l-6.2,20.6C288.6,31.5,288.7,31.6,288.9,31.6z"/>
	<path class="st0" d="M323.4,43.7L310.8,3.1c0-0.1-0.1-0.2-0.1-0.4c0-0.5,0.3-0.7,0.8-0.7h5.5c0.6,0,0.9,0.3,1.1,0.8l9,31.4
		c0.1,0.2,0.2,0.2,0.3,0.2c0.1,0,0.2-0.1,0.2-0.2l8.9-31.3c0.1-0.6,0.5-0.8,1.1-0.8h5.4c0.3,0,0.6,0.1,0.7,0.3
		c0.1,0.2,0.2,0.5,0.1,0.8l-12.7,40.6c-0.2,0.5-0.5,0.8-1.1,0.8h-5.6C323.9,44.5,323.5,44.2,323.4,43.7z"/>
	<path class="st0" d="M370.8,43.7l-1.9-6.2c0-0.2-0.2-0.3-0.4-0.3h-15.9c-0.2,0-0.4,0.1-0.4,0.3l-1.9,6.2c-0.2,0.5-0.5,0.8-1.1,0.8
		h-5.5c-0.3,0-0.6-0.1-0.7-0.3c-0.1-0.2-0.2-0.5-0.1-0.8l13-40.6c0.2-0.5,0.5-0.8,1.1-0.8h7.1c0.6,0,0.9,0.3,1.1,0.8l13,40.6
		c0,0.1,0.1,0.2,0.1,0.4c0,0.5-0.3,0.7-0.8,0.7h-5.5C371.4,44.5,371,44.2,370.8,43.7z M354.4,31.6h12.4c0.2,0,0.3-0.1,0.3-0.4
		l-6.2-20.6c0-0.2-0.1-0.2-0.2-0.2c-0.1,0-0.2,0.1-0.3,0.2l-6.2,20.6C354,31.5,354.2,31.6,354.4,31.6z"/>
	<path class="st0" d="M385.3,43.5V3c0-0.6,0.3-1,1-1h14.6c2.9,0,5.4,0.5,7.6,1.5c2.2,1,3.9,2.5,5.1,4.3c1.2,1.9,1.8,4.1,1.8,6.6V32
		c0,2.5-0.6,4.7-1.8,6.6c-1.2,1.9-2.9,3.3-5.1,4.3c-2.2,1-4.7,1.5-7.6,1.5h-14.6C385.6,44.5,385.3,44.1,385.3,43.5z M392.7,38.4h8.4
		c2.1,0,3.9-0.7,5.1-2c1.3-1.4,1.9-3.2,2-5.4V15.6c0-2.3-0.6-4.1-1.9-5.5c-1.3-1.4-3-2-5.2-2h-8.4c-0.2,0-0.4,0.1-0.4,0.4V38
		C392.3,38.3,392.4,38.4,392.7,38.4z"/>
	<path class="st0" d="M446.9,43.7l-1.9-6.2c0-0.2-0.2-0.3-0.4-0.3h-15.9c-0.2,0-0.4,0.1-0.4,0.3l-1.9,6.2c-0.2,0.5-0.5,0.8-1.1,0.8
		h-5.5c-0.3,0-0.6-0.1-0.7-0.3c-0.1-0.2-0.2-0.5-0.1-0.8l13-40.6c0.2-0.5,0.5-0.8,1.1-0.8h7.1c0.6,0,0.9,0.3,1.1,0.8l13,40.6
		c0,0.1,0.1,0.2,0.1,0.4c0,0.5-0.3,0.7-0.8,0.7H448C447.4,44.5,447,44.2,446.9,43.7z M430.4,31.6h12.4c0.2,0,0.3-0.1,0.3-0.4
		l-6.2-20.6c0-0.2-0.1-0.2-0.2-0.2s-0.2,0.1-0.3,0.2l-6.2,20.6C430.1,31.5,430.2,31.6,430.4,31.6z"/>

</svg>
